# xmcd
#
# Track frame offsets:
#	150
#	17536
#	34958
#	55275
#	72563
#	86433
#	104482
#	124692
#	142411
#	155969
#
# Disc length: 2482 seconds
#
# Revision: 1
# Processed by: cddbd v1.4PL0 Copyright (c) Steve Scherf et al.
# Submitted via: audiograbber 1.80.04
#
DISCID=9509b00a
DTITLE=Alan Jackson - High Mileage
DYEAR=1998
DGENRE=Country
TTITLE0=Right on the Money 
TTITLE1=Gone Crazy
TTITLE2=Little Man 
TTITLE3=What a Day Yesterday Was
TTITLE4=Hurtin' Comes Easy
TTITLE5=I'll Go on Loving You
TTITLE6=Another Good Reason
TTITLE7=Woman's Love
TTITLE8=Dancin' All Around It
TTITLE9=Amarillo
EXTD=
EXTT0=
EXTT1=
EXTT2=
EXTT3=
EXTT4=
EXTT5=
EXTT6=
EXTT7=
EXTT8=
EXTT9=
PLAYORDER=
